<svg width="609" height="492" viewBox="0 0 609 492" fill="none" xmlns="http://www.w3.org/2000/svg">
<g id="avatarSvg">
<g id="rootSVG">
<path id="Vector" d="M443.3 61.4737C474.384 70.9857 478.66 135.482 499.46 185.71C520.26 235.938 557.584 271.898 566.713 313.194C575.958 354.49 556.891 401.006 518.064 419.914C479.238 438.706 420.535 429.774 380.322 431.63C340.109 433.486 318.5 446.014 292.153 454.018C265.922 462.022 235.184 465.27 206.411 456.802C177.753 448.218 151.175 427.918 133.727 401.122C116.162 374.326 107.611 341.15 94.4377 300.202C81.2643 259.37 63.4688 210.766 79.0688 180.722C94.6688 150.562 143.664 138.73 185.611 135.598C227.442 132.35 262.109 137.802 308.331 117.734C354.553 97.5497 412.331 52.0777 443.3 61.4737Z" fill="white"/>
</g>
<g id="smallBalls">
<circle id="Ellipse 7" cx="346" cy="477" r="15" fill="#502784"/>
<circle id="Ellipse 8" cx="584" cy="276" r="15" fill="#502784"/>
<circle id="Ellipse 9" cx="15" cy="229" r="15" fill="#502784"/>
<circle id="Ellipse 6" cx="55" cy="115" r="15" fill="#502784"/>
</g>
<g id="bigballs">
<circle id="Ellipse 2" cx="549" cy="100" r="40" fill="#D9D9D9"/>
<circle id="Ellipse 5" cx="569" cy="450" r="40" fill="#D9D9D9"/>
<circle id="Ellipse 3" cx="321" cy="40" r="40" fill="#D9D9D9"/>
<circle id="Ellipse 4" cx="55" cy="410" r="40" fill="#D9D9D9"/>
</g>
<g id="AvatarBlack 1" clip-path="url(#clip0_29_3)">
<path id="Vector_2" d="M385 258.492C385 288.932 356.346 313.609 321 313.609C285.654 313.609 257 288.932 257 258.492C257 228.052 301.522 193 321 193C340.478 193 385 228.052 385 258.492Z" fill="black"/>
<path id="Vector_3" d="M365.325 272.672C360.476 281.239 345.593 290.266 321 290.266C308.51 290.266 298.067 287.119 290.344 283.207C283.359 279.668 278.781 275.601 276.838 272.82C282.51 265.133 296.919 255.25 321 255.25C346.061 255.25 359.999 260.823 365.325 272.672Z" stroke="white" stroke-width="6"/>
<path id="Vector_4" d="M338.391 271.461H303.609V274.703H338.391V271.461Z" fill="white"/>
<path id="Vector_5" d="M372.983 338.25C372.983 359.021 368.304 364.188 320.809 349.922C268.635 365.484 268.635 359.021 268.635 338.25C268.635 317.479 291.994 300.641 320.809 300.641C349.624 300.641 372.983 317.479 372.983 338.25Z" fill="black"/>
<path id="Vector_6" d="M345.383 336.878C346.11 339.438 345.686 341.046 344.724 342.128C343.71 343.268 341.915 344.039 339.417 344.511C336.942 344.978 333.954 345.12 330.75 345.14C328.97 345.151 327.201 345.126 325.431 345.101C323.957 345.079 322.482 345.059 321 345.059C314.77 345.059 309.18 344.022 305.187 342.387C303.189 341.569 301.637 340.619 300.599 339.614C299.566 338.614 299.087 337.607 299.087 336.629C299.087 335.915 299.676 335.148 301.335 334.33C302.938 333.541 305.183 332.885 307.704 332.258C308.7 332.009 309.751 331.764 310.808 331.516C312.357 331.153 313.92 330.786 315.352 330.405C317.625 329.8 319.779 329.105 321.313 328.199C327.571 328.2 332.974 328.226 337.163 329.337C339.266 329.896 341.006 330.715 342.367 331.903C343.722 333.086 344.759 334.681 345.383 336.878Z" stroke="white" stroke-width="3"/>
<path id="Vector_7" d="M319.435 351.705C319.775 351.67 320.448 351.024 320.614 350.732C320.836 350.341 320.948 350.351 321.309 350.048C321.854 349.591 322.355 349.224 322.913 348.778C324.273 347.691 325.617 346.789 327.261 345.869" stroke="white" stroke-width="2" stroke-linecap="round"/>
<path id="Vector_8" d="M342.913 331.675C342.913 331.496 343.069 331.351 343.261 331.351H347.452C347.845 331.351 349.195 331.796 349.522 331.999C351.609 333.296 347.783 331.999 346.217 331.999C345.078 331.999 343.846 331.999 343.26 331.999C343.068 331.999 342.913 331.854 342.913 331.675Z" fill="white"/>
<path id="Vector_9" d="M299.735 335.239C299.776 335.414 299.657 335.587 299.47 335.625L295.376 336.463C294.993 336.541 293.571 336.376 293.205 336.243C290.868 335.393 294.904 335.896 296.433 335.582C297.546 335.355 298.749 335.109 299.321 334.992C299.509 334.953 299.694 335.064 299.735 335.239Z" fill="white"/>
<path id="Vector_10" d="M299.261 229.298V226.232L310.708 221.752V225.105L303.15 227.736L303.269 227.573V227.964L303.15 227.795L310.708 230.432V233.778L299.261 229.298ZM326.132 218.053L320.915 236.121H317.619L322.836 218.053H326.132ZM339.708 229.298L328.261 233.778V230.432L335.818 227.795L335.708 227.964V227.573L335.818 227.736L328.261 225.105V221.752L339.708 226.232V229.298Z" fill="white"/>
</g>
</g>
<defs>
<clipPath id="clip0_29_3">
<rect width="128" height="166" fill="white" transform="translate(257 193)"/>
</clipPath>
</defs>
</svg>
